<svg width="24" height="24" viewBox="0 0 24 24" fill="none" xmlns="http://www.w3.org/2000/svg">
<g clip-path="url(#clip0_170_345)">
<path d="M12.0001 2C6.47789 2 2 6.47711 2 12.0001C2 16.4184 4.86531 20.1669 8.83867 21.4891C9.33844 21.5817 9.52195 21.2722 9.52195 21.008C9.52195 20.7696 9.51258 19.9819 9.50836 19.1463C6.72633 19.7512 6.1393 17.9664 6.1393 17.9664C5.68438 16.8105 5.02891 16.5031 5.02891 16.5031C4.12164 15.8825 5.09734 15.8953 5.09734 15.8953C6.10148 15.9658 6.63023 16.9258 6.63023 16.9258C7.52219 18.4545 8.96969 18.0126 9.54031 17.757C9.63008 17.1108 9.88922 16.6695 10.1752 16.4198C7.95406 16.167 5.61914 15.3095 5.61914 11.4778C5.61914 10.386 6.00977 9.49391 6.64945 8.79359C6.54563 8.54172 6.20336 7.52469 6.74633 6.14719C6.74633 6.14719 7.58609 5.87844 9.49711 7.17227C10.2948 6.9507 11.1502 6.83961 12.0001 6.83578C12.8499 6.83961 13.7061 6.95063 14.5052 7.17227C16.4139 5.87852 17.2525 6.14727 17.2525 6.14727C17.7968 7.52461 17.4544 8.5418 17.3505 8.79359C17.9917 9.49391 18.3797 10.386 18.3797 11.4778C18.3797 15.3187 16.0403 16.1644 13.8135 16.412C14.1722 16.7223 14.4918 17.3309 14.4918 18.2638C14.4918 19.6018 14.4802 20.6787 14.4802 21.008C14.4802 21.2742 14.6602 21.586 15.1671 21.4877C19.1383 20.1641 22 16.417 22 12.0002C22 6.47711 17.5227 2 12.0001 2ZM5.74539 16.2453C5.72336 16.295 5.64516 16.3099 5.57398 16.2758C5.50141 16.2432 5.4607 16.1755 5.48414 16.1256C5.5057 16.0745 5.58406 16.0602 5.65641 16.0945C5.72906 16.1271 5.77047 16.1955 5.74539 16.2453ZM6.23727 16.6842C6.18961 16.7284 6.09633 16.7079 6.03305 16.638C5.96766 16.5684 5.95539 16.4751 6.00375 16.4302C6.05297 16.386 6.14336 16.4067 6.20891 16.4764C6.27438 16.547 6.28703 16.6395 6.23727 16.6842ZM6.57477 17.2458C6.51344 17.2884 6.41328 17.2484 6.35133 17.1595C6.29008 17.0706 6.29008 16.964 6.35266 16.9213C6.41477 16.8785 6.51344 16.917 6.57617 17.0052C6.63727 17.0956 6.63727 17.2023 6.57469 17.2459L6.57477 17.2458ZM7.14539 17.8962C7.09063 17.9566 6.97383 17.9404 6.88836 17.8579C6.80094 17.7773 6.77664 17.6629 6.83164 17.6024C6.88711 17.5418 7.00453 17.5588 7.09063 17.6407C7.17734 17.7212 7.20391 17.8364 7.14539 17.8962ZM7.88305 18.1157C7.85883 18.1941 7.74633 18.2297 7.63312 18.1964C7.52 18.1621 7.44602 18.0704 7.46883 17.9913C7.49234 17.9123 7.60531 17.8753 7.71938 17.9109C7.83234 17.945 7.90656 18.036 7.88305 18.1157ZM8.72242 18.2089C8.72523 18.2913 8.62922 18.3597 8.51031 18.3612C8.39078 18.3639 8.29398 18.2972 8.29266 18.2159C8.29266 18.1327 8.38656 18.065 8.50617 18.063C8.62508 18.0606 8.72242 18.1269 8.72242 18.2089ZM9.54703 18.1773C9.56125 18.2577 9.47867 18.3404 9.36055 18.3624C9.24453 18.3836 9.13703 18.3339 9.12227 18.2541C9.10789 18.1716 9.19203 18.089 9.30789 18.0677C9.42617 18.0471 9.53195 18.0955 9.54703 18.1773Z" fill="white"/>
</g>
<defs>
<clipPath id="clip0_170_345">
<rect width="24" height="24" fill="white"/>
</clipPath>
</defs>
</svg>
