<svg width="112" height="20" viewBox="0 0 112 20" fill="none" xmlns="http://www.w3.org/2000/svg">
<path d="M2.96011 10.4799V6.13591C2.96011 4.71991 4.32811 4.88791 5.43211 4.88791H12.0081C13.5441 4.88791 14.8161 4.64791 14.7921 6.56791C14.7681 8.48791 14.7681 8.72791 14.7681 8.72791C14.7441 10.4559 14.7921 11.0559 13.0641 11.4159C12.6081 11.5119 12.4401 11.6079 12.4401 12.0879V15.0399C12.4401 15.6159 12.8001 15.5679 13.1121 15.5679C14.1441 15.5679 13.9281 13.9359 15.6321 13.9359C16.5201 13.9359 17.9121 14.5119 17.9121 15.5679C17.9121 15.8559 17.8881 16.1439 17.7921 16.4319C16.8801 19.1679 15.8721 19.0479 12.2241 19.0479C10.5681 19.0479 8.74411 18.7839 8.74411 16.9839C8.74411 15.3039 8.72012 13.8159 8.72012 12.1359C8.72012 11.8719 8.64811 11.6559 8.36012 11.6559C7.97611 11.6559 7.95211 12.0879 7.95211 12.3519C7.95211 13.2159 7.71211 13.8399 7.52011 14.6799C7.01611 16.8399 4.61611 19.1199 2.33611 19.1199C1.13611 19.1199 0.344116 18.4479 0.344116 17.1999C0.344116 15.3039 4.13612 14.9919 4.13612 12.4479V11.5359C3.58412 11.5599 2.96011 11.3199 2.96011 10.4799ZM11.7921 0.231912C12.8961 0.231912 14.0241 1.26391 14.9601 1.93591C15.3921 2.24791 16.4961 3.06391 17.1921 3.71191C17.6001 4.09591 17.7201 4.55191 17.5761 5.05591C17.3841 5.79991 16.8561 6.78391 16.1121 6.78391C15.8721 6.78391 15.6081 6.75991 15.5121 6.51991C15.3681 5.72791 15.7281 4.19191 12.9921 4.19191H11.2881C10.4721 4.19191 9.84811 2.94391 9.84811 2.00792C9.84811 0.951914 10.8801 0.231912 11.7921 0.231912ZM10.6401 7.69591H7.49612C7.08812 7.69591 6.84811 7.79191 6.84811 8.22391C6.84811 8.63191 7.32812 8.75191 7.66412 8.75191H10.5681C11.0961 8.75191 11.3601 8.67991 11.3601 8.10391C11.3601 7.71991 10.9281 7.69591 10.6401 7.69591Z" fill="#1D1D1D"/>
<path d="M22.3501 1.59991C24.0781 1.59991 28.062 5.55991 28.83 7.40791C28.59 8.07991 27.99 8.99191 28.038 9.49591C28.062 9.68791 28.1341 9.80791 28.3501 9.83191C28.6621 9.85591 28.854 9.44791 28.998 9.03991C29.79 6.80791 33.414 1.50391 35.91 1.50391C37.278 1.50391 38.334 2.84791 38.334 4.16791C38.334 4.67191 38.07 5.36791 37.662 5.67991C35.19 7.59991 33.918 7.93591 32.622 11.0799C31.758 13.1679 31.7101 14.4639 31.4461 16.7439C31.2061 18.8559 29.694 18.9759 27.966 18.9759C27.366 18.9759 26.646 19.0239 25.638 19.0239C24.246 19.0239 22.758 18.8079 22.758 17.3679C22.758 14.6559 23.19 14.5599 25.734 14.5599C25.878 14.5599 26.07 14.5839 26.262 14.5839C26.574 14.5839 26.886 14.5119 26.886 14.1279C26.886 11.9919 24.678 8.82391 23.022 7.47991C22.422 6.97591 20.5981 5.91991 20.3101 5.15191C20.1901 4.81591 20.1661 4.47991 20.1661 4.11992C20.1661 2.94391 21.0541 1.59991 22.3501 1.59991Z" fill="#1D1D1D"/>
<path d="M45.1555 7.40791C45.1555 7.95991 45.3955 8.17591 45.9235 8.17591C47.2915 8.17591 48.5875 8.10391 49.9555 8.10391C51.8275 8.10391 53.9635 8.12791 54.0595 10.5279C54.1075 11.9439 54.1555 13.1439 54.1555 14.8479C54.1555 16.8399 53.8435 18.9279 51.4675 18.9999C48.6115 19.0719 45.7315 19.0719 42.8755 19.0719C40.0915 19.0719 39.7315 17.4879 39.2515 15.1359C39.1315 14.5599 39.0595 13.9599 39.0595 13.3599C39.0595 11.8479 40.4755 11.4639 41.7235 11.4639C43.9075 11.4639 43.0195 14.4879 43.7395 14.9679C43.9795 15.1359 45.1075 15.1599 46.2355 15.1599C48.8755 15.1599 49.5235 15.3279 49.5235 14.5599C49.5235 13.9359 49.4995 13.2879 49.4995 12.6639C49.4995 12.0879 49.4515 11.8239 48.8035 11.8239L43.7155 11.8479C43.4995 10.7439 42.3475 10.5759 41.3875 10.5759C40.7635 10.5759 40.7395 9.25591 40.7395 8.82391V5.03191C40.7395 3.15991 41.0275 1.71991 43.1875 1.71991H49.9795C51.6835 1.71991 52.7395 1.69591 52.7395 3.71191C52.7395 5.43991 52.0915 5.84791 50.5075 5.84791C49.8595 5.84791 45.4915 5.75191 45.2995 5.96791C45.1555 6.15991 45.1555 7.11991 45.1555 7.40791Z" fill="#1D1D1D"/>
<path d="M66.8599 9.37591C65.7799 9.37591 64.6999 8.31991 64.6999 7.38391C64.6999 6.54391 65.4439 6.42391 65.4439 6.03991C65.4439 5.84791 65.0839 5.82391 64.7719 5.82391C62.7319 5.82391 60.6919 5.89591 58.6519 5.89591C56.6599 5.89591 56.2279 5.46392 56.2279 3.44792C56.2279 2.27191 56.9239 1.71991 58.0519 1.71991H71.1559C72.2359 1.71991 73.1479 2.36791 73.1479 3.51991C73.1479 4.98391 71.9479 5.94391 70.9399 6.80791C69.8119 7.76791 68.4679 9.37591 66.8599 9.37591ZM67.0999 12.1359V16.9359C67.0999 18.8799 65.6119 18.9759 64.1479 18.9759C63.2839 18.9759 62.4439 18.9999 61.5799 18.9999C59.8519 18.9999 59.7319 17.7759 59.7319 16.3839C59.7319 14.9919 60.3799 14.7519 61.0759 14.7519C61.3399 14.7519 61.6039 14.7759 61.8439 14.7759C62.3959 14.7759 62.7799 14.6799 62.7799 13.8159C62.7799 11.9919 62.7319 10.1919 62.7319 8.36791C62.7319 7.69591 62.8519 6.61591 63.7639 6.61591C63.8359 6.61591 64.0039 6.66391 64.0039 6.73591C64.0039 6.92791 63.8839 7.14391 63.8839 7.33591C63.8839 8.94391 65.4679 10.1679 67.0039 10.1679C67.1239 10.5039 67.0999 11.8239 67.0999 12.1359Z" fill="#1D1D1D"/>
<path d="M79.1155 0.159912C80.9875 0.159912 80.5075 1.71991 81.0835 1.71991H88.1155C89.6515 1.71991 91.0675 1.76791 91.0675 3.71191C91.0675 5.34391 90.3955 5.53591 88.9315 5.53591L82.9555 5.51191C82.0675 5.51191 81.9955 6.42391 81.9955 7.09591C81.9955 7.74391 82.0675 8.43991 82.9075 8.43991H88.4035C89.6275 8.43991 90.5395 8.65591 90.5395 10.0959C90.5395 11.5839 89.7475 11.8959 88.4275 11.8959H82.5715C81.9955 11.8959 81.9475 13.0719 81.9475 13.7919C81.9475 14.8239 81.9475 15.5199 83.0035 15.5199H88.9795C90.0355 15.5199 90.9475 15.7839 90.9475 17.0319C90.9475 18.3519 90.3955 18.9999 89.0515 18.9999L80.5555 19.0239C79.0435 19.0239 77.8675 18.7839 77.8675 16.9839C77.8675 15.9759 77.8675 9.90391 78.0115 9.47191C79.3555 8.63191 80.0275 7.09591 80.0275 5.51191C80.0275 5.29591 79.8595 5.19991 79.6675 5.19991C78.8275 5.19991 79.3075 8.51191 77.1955 8.51191C76.2595 8.51191 74.8195 7.93591 74.8195 6.83191C74.8195 5.67991 75.9715 3.35192 76.4275 2.19991C77.0275 0.663914 77.2435 0.159912 79.1155 0.159912Z" fill="#1D1D1D"/>
<path d="M97.7807 18.8319C97.3007 19.0479 96.6527 19.1199 96.1247 19.1199C94.6367 19.1199 93.3407 17.9919 93.3407 16.4559C93.3407 13.8879 98.5727 14.3199 98.5727 6.59191C98.5727 6.13591 97.8287 6.08791 97.1087 6.08791C95.0447 6.08791 94.2527 6.08791 94.2527 4.02391C94.2527 2.03191 94.9727 1.71991 96.8687 1.71991H106.517C110.717 1.71991 111.125 2.63191 111.125 5.53591C111.125 6.23191 111.101 7.02391 111.101 7.95991C111.101 10.8159 111.269 18.9999 107.213 18.9999H100.997C98.7647 18.9999 97.8527 18.8559 97.8527 16.4559C97.8527 15.6159 98.4527 14.6799 99.4607 14.6799H102.245C103.949 14.6799 105.749 14.7519 105.941 14.5119C106.661 13.8639 106.733 8.29591 106.733 7.04791C106.733 6.15991 106.445 6.11191 105.581 6.11191C104.885 6.11191 104.213 6.15991 103.517 6.15991C103.037 6.15991 102.989 7.31191 102.989 8.17591V8.75191C102.989 10.2879 102.389 12.6399 101.477 13.9599C101.045 13.9359 100.613 13.9119 100.205 13.9119C98.5487 13.9119 97.0367 14.3679 97.0367 16.7679C97.0367 17.3439 97.2047 18.4479 97.7807 18.8319Z" fill="#1D1D1D"/>
</svg>
